<svg xmlns="http://www.w3.org/2000/svg" width="256" height="256" viewBox="0 0 256 256">
  <defs>
    <linearGradient id="wood" x1="0" y1="0" x2="1" y2="1">
      <stop offset="0%" stop-color="#5a3e18"/>
      <stop offset="50%" stop-color="#7a5526"/>
      <stop offset="100%" stop-color="#3f2b12"/>
    </linearGradient>
    <filter id="softShadow" x="-20%" y="-20%" width="140%" height="140%">
      <feGaussianBlur in="SourceAlpha" stdDeviation="1.2" result="blur"/>
      <feOffset dy="0.6" dx="0.6" result="offset"/>
      <feMerge>
        <feMergeNode in="offset"/>
        <feMergeNode in="SourceGraphic"/>
      </feMerge>
    </filter>
  </defs>

  <!-- Transparent background to allow border-image slicing -->
  <rect x="0" y="0" width="256" height="256" fill="none"/>

  <!-- Ornate wooden frame -->
  <rect x="20" y="20" width="216" height="216" fill="none"
        stroke="url(#wood)" stroke-width="22" rx="6" ry="6" filter="url(#softShadow)"/>

  <!-- Corner flourishes (stylized medieval vines) -->
  <g fill="none" stroke="#c8a66a" stroke-width="3" stroke-linecap="round">
    <!-- TL -->
    <path d="M40 76c8-16 16-20 36-24"/>
    <path d="M48 64c6 2 8 6 10 12"/>
    <!-- TR -->
    <path d="M216 76c-8-16-16-20-36-24"/>
    <path d="M208 64c-6 2-8 6-10 12"/>
    <!-- BL -->
    <path d="M40 180c8 16 16 20 36 24"/>
    <path d="M48 192c6-2 8-6 10-12"/>
    <!-- BR -->
    <path d="M216 180c-8 16-16 20-36 24"/>
    <path d="M208 192c-6-2-8-6-10-12"/>
  </g>

  <!-- Studs along edges -->
  <g fill="#b0894a" stroke="#a0793f" stroke-width="0.6">
    <circle cx="48" cy="24" r="2.2"/>
    <circle cx="208" cy="24" r="2.2"/>
    <circle cx="48" cy="232" r="2.2"/>
    <circle cx="208" cy="232" r="2.2"/>
  </g>
</svg>
