<svg xmlns="http://www.w3.org/2000/svg" width="256" height="256" viewBox="0 0 256 256">
  <defs>
    <linearGradient id="gold" x1="0" y1="0" x2="1" y2="1">
      <stop offset="0%" stop-color="#f8e7a1"/>
      <stop offset="40%" stop-color="#e5c64f"/>
      <stop offset="70%" stop-color="#caa233"/>
      <stop offset="100%" stop-color="#8a6a1f"/>
    </linearGradient>
    <linearGradient id="goldDark" x1="1" y1="0" x2="0" y2="1">
      <stop offset="0%" stop-color="#7c5d1c"/>
      <stop offset="100%" stop-color="#a8852b"/>
    </linearGradient>
    <filter id="bevel" x="-20%" y="-20%" width="140%" height="140%">
      <feGaussianBlur in="SourceAlpha" stdDeviation="1.2" result="blur"/>
      <feSpecularLighting in="blur" surfaceScale="3" specularConstant="0.65" specularExponent="12" lighting-color="#fff" result="spec">
        <feDistantLight azimuth="225" elevation="45"/>
      </feSpecularLighting>
      <feComposite in="spec" in2="SourceAlpha" operator="in" result="specOut"/>
      <feMerge>
        <feMergeNode in="SourceGraphic"/>
        <feMergeNode in="specOut"/>
      </feMerge>
    </filter>
  </defs>

  <!-- Transparent canvas for border-image slicing -->
  <rect width="256" height="256" fill="none"/>

  <!-- Main frame -->
  <rect x="22" y="22" width="212" height="212" rx="10" ry="10"
        fill="none" stroke="url(#gold)" stroke-width="28" filter="url(#bevel)"/>

  <!-- Inner dark rim for depth -->
  <rect x="30" y="30" width="196" height="196" rx="8" ry="8"
        fill="none" stroke="url(#goldDark)" stroke-width="3" opacity="0.85"/>

  <!-- Corner knot ornaments -->
  <g fill="none" stroke="#f2e2a4" stroke-width="3" stroke-linecap="round" stroke-linejoin="round" opacity="0.85">
    <!-- TL knot -->
    <path d="M48 60c8-10 20-14 34-16M56 64c6-2 10-2 14 2M60 48c4 6 6 10 2 14"/>
    <!-- TR knot -->
    <path d="M208 60c-8-10-20-14-34-16M200 64c-6-2-10-2-14 2M196 48c-4 6-6 10-2 14"/>
    <!-- BL knot -->
    <path d="M48 196c8 10 20 14 34 16M56 192c6 2 10 2 14-2M60 208c4-6 6-10 2-14"/>
    <!-- BR knot -->
    <path d="M208 196c-8 10-20 14-34 16M200 192c-6 2-10 2-14-2M196 208c-4-6-6-10-2-14"/>
  </g>
</svg>
